<svg xmlns="http://www.w3.org/2000/svg" width="60.99" height="60.86" viewBox="0 0 60.99 60.86"><title>footer-logo-new</title><path d="M0,31.23V29.65a2.54,2.54,0,0,0,0-.39,28.35,28.35,0,0,1,.56-4.77A29.71,29.71,0,0,1,8,9.86,30.07,30.07,0,0,1,28.11.11L29.47,0h2c.15,0,.29.05.44.06A29.05,29.05,0,0,1,37.78.9a30.47,30.47,0,0,1,23.09,27L61,29.26v2.67c-.05.56-.08,1.12-.13,1.68A29.77,29.77,0,0,1,58.31,43a30.47,30.47,0,0,1-32.8,17.43A29.53,29.53,0,0,1,10,53,29.87,29.87,0,0,1,.11,32.83C.07,32.26,0,31.75,0,31.23Z" transform="translate(0 0)"/><path d="M25.11,60.38c-.16,0-5.47-5.24-8-7.75a.75.75,0,0,1-.19-.47V49.41a3.36,3.36,0,0,1,.06-.63,2.43,2.43,0,0,1,2.44-1.91h1v-2a1.72,1.72,0,0,1,1.1-1.81,6.36,6.36,0,0,0,2.33-1.88A8.86,8.86,0,0,0,25.59,36c.08-1.6,0-3.21.06-4.82a.63.63,0,0,0-.19-.41c-1.21-1.13-2.41-2.27-3.65-3.38a1.29,1.29,0,0,1-.54-1.24c0-.2,0-.41,0-.61v-1.9h.92V22.49a2,2,0,0,1,1.49-1.86c.24-.05.27-.16.27-.37V17.49a5.71,5.71,0,0,1,.16-1.3,5.37,5.37,0,0,1,5-4.07c.09,0,.22,0,.28-.07a1.54,1.54,0,0,0-.13-.9L27.53,9.79c-.08-.06-.18-.16-.18-.25V7.43h2.09V5.36h1.88a.79.79,0,0,1,.58.25L60.53,34.22a.58.58,0,0,1,.1.11.63.63,0,0,1,.1.29c-.2,1.07-.36,2.15-.63,3.2a30.49,30.49,0,0,1-27,22.94,33.31,33.31,0,0,1-3.46.09A25.5,25.5,0,0,1,25.11,60.38Z" transform="translate(0 0)" fill="#0a1e71"/><path d="M16.9,52.46V49a2.4,2.4,0,0,1,2.4-2.15h1.08V44.61a1.44,1.44,0,0,1,.86-1.42,7.19,7.19,0,0,0,4.1-5.59,18.46,18.46,0,0,0,.25-2.88V26.9H21.24V23.68h.89v-.87a2,2,0,0,1,1.61-2.21.34.34,0,0,0,.15-.26V17.59a5.43,5.43,0,0,1,4.3-5.35c.32-.07.65-.07,1-.12.07,0,.2-.1.2-.15V9.66h-2V7.45h2V5.39h2.2V7.44h2.07V9.63H31.91c-.26,0-.32.09-.32.33V11.7c0,.31.07.41.39.43A5.34,5.34,0,0,1,37,17.48v2.84c0,.18,0,.26.24.3a2,2,0,0,1,1.53,1.89v1.15h.89v3.21H35.34v8a12,12,0,0,0,.79,4.56,6.76,6.76,0,0,0,3.37,3.63,1.7,1.7,0,0,1,1.07,1.76v2h.82a4.21,4.21,0,0,1,1,.12,2.35,2.35,0,0,1,1.69,2l.06.21v3.29Z" transform="translate(0 0)" fill="#fff"/></svg>