<svg xmlns="http://www.w3.org/2000/svg" width="201.65" height="60.87" viewBox="0 0 201.65 60.87"><title>politicia-logo</title><path d="M677.11,358.55s0,0,.06,0,0-.07.06-.1a.4.4,0,0,1,.35-.21h10.8a11.46,11.46,0,0,1,1.94.16,8.31,8.31,0,0,1,4.1,1.91,7.51,7.51,0,0,1,2.24,3.52,9.09,9.09,0,0,1,.36,1.94,10.94,10.94,0,0,1,0,1.28,8.33,8.33,0,0,1-.84,3.43,7.41,7.41,0,0,1-3.55,3.46,9.48,9.48,0,0,1-2.37.75,13.28,13.28,0,0,1-2.18.19h-4.58a.16.16,0,0,0-.15.13s0,.07,0,.1v8.83a1.92,1.92,0,0,1,0,.24.43.43,0,0,1-.35.39h-5.33a.34.34,0,0,1-.1,0,.43.43,0,0,1-.39-.25s0-.1-.09-.12Zm6.26,8.12v2.83a1.09,1.09,0,0,0,0,.18.18.18,0,0,0,.17.18h3.81a5.79,5.79,0,0,0,.83-.06,3.41,3.41,0,0,0,1.3-.48,2.82,2.82,0,0,0,1.29-1.78,3.5,3.5,0,0,0,.07-1.29,2.93,2.93,0,0,0-.73-1.63,3.14,3.14,0,0,0-1.35-.88,4,4,0,0,0-1.33-.2h-3.76a.48.48,0,0,0-.12,0c-.12,0-.17,0-.18.18a1.09,1.09,0,0,0,0,.18Z" transform="translate(-607 -340)"/><path d="M796.66,384.82l-.19,0a8.14,8.14,0,0,1-2-.41,6,6,0,0,1-1.65-.85,4.56,4.56,0,0,1-1.75-2.7,7.46,7.46,0,0,1-.13-2.31,5.91,5.91,0,0,1,.37-1.6,5.08,5.08,0,0,1,1.82-2.3,6.86,6.86,0,0,1,2.05-1,10.19,10.19,0,0,1,1.89-.37,17,17,0,0,1,1.75-.08h3.56c.12,0,.17-.07.18-.19v-.81a2.23,2.23,0,0,0-.1-.62,1.87,1.87,0,0,0-.93-1.13,2.71,2.71,0,0,0-.91-.3,4,4,0,0,0-1.55.07,2.71,2.71,0,0,0-.82.35,1.52,1.52,0,0,0-.64.73.69.69,0,0,1-.1.19.44.44,0,0,1-.42.2l-.55-.07-1.36-.18-1.35-.18-1.32-.18-.82-.11a1.17,1.17,0,0,1-.25-.07.28.28,0,0,1-.19-.34,5.11,5.11,0,0,1,.93-2.46,6.69,6.69,0,0,1,1.63-1.6,8.88,8.88,0,0,1,2.58-1.23,11.18,11.18,0,0,1,2.29-.45,14.47,14.47,0,0,1,2.08,0,11.19,11.19,0,0,1,4.21,1.07,7.56,7.56,0,0,1,2.15,1.52,5.93,5.93,0,0,1,1.35,2.08c0,.13.07.27.11.4l0,.05v14.51a.58.58,0,0,1-.4.11H803a.45.45,0,0,1-.42-.44v-1.24a.91.91,0,0,0,0-.17.14.14,0,0,0-.06-.07.1.1,0,0,0-.09,0,.31.31,0,0,0-.07.09,4.38,4.38,0,0,1-.55.66,4.63,4.63,0,0,1-1.66,1,6.76,6.76,0,0,1-1.66.37.3.3,0,0,0-.19,0Zm4.35-8.23h-1.18a4.53,4.53,0,0,0-1,.13,2.51,2.51,0,0,0-.94.39,1.55,1.55,0,0,0-.66.94,2.24,2.24,0,0,0-.06.58,1.65,1.65,0,0,0,1,1.52,2.28,2.28,0,0,0,.76.18,4.65,4.65,0,0,0,1.12,0,3.36,3.36,0,0,0,1.51-.63,2.35,2.35,0,0,0,1-1.94v-.86a.61.61,0,0,0,0-.14.14.14,0,0,0-.13-.13H801Z" transform="translate(-607 -340)"/><path d="M706.22,384.82a1,1,0,0,0-.17,0,9.24,9.24,0,0,1-2.49-.54,8.38,8.38,0,0,1-5-4.85,11.83,11.83,0,0,1-.71-2.67,14,14,0,0,1-.13-2.75,11.87,11.87,0,0,1,.33-2.37,10,10,0,0,1,1.15-2.83,8.31,8.31,0,0,1,4.3-3.42,9.06,9.06,0,0,1,2-.49,11.64,11.64,0,0,1,2.36-.06,9.12,9.12,0,0,1,3.61.94,8.32,8.32,0,0,1,3.76,3.86,10.62,10.62,0,0,1,.87,2.64,13,13,0,0,1,.22,2.56,12.77,12.77,0,0,1-.73,4.24,8.55,8.55,0,0,1-6.24,5.54,8.92,8.92,0,0,1-1.36.2l-.15,0ZM704,374.69a12.35,12.35,0,0,0,.12,1.62,5,5,0,0,0,.31,1.2,3.56,3.56,0,0,0,.82,1.27,2.41,2.41,0,0,0,1.18.64,3,3,0,0,0,.9.06,2.2,2.2,0,0,0,.71-.15,2.57,2.57,0,0,0,1.13-.85,4.46,4.46,0,0,0,.8-1.74,8.91,8.91,0,0,0,.16-1.17,10,10,0,0,0-.07-2.19,8.22,8.22,0,0,0-.28-1.19,3.46,3.46,0,0,0-.68-1.21,2.36,2.36,0,0,0-1.27-.77,2.74,2.74,0,0,0-.5-.08,2.94,2.94,0,0,0-1.35.18,2.52,2.52,0,0,0-1.24,1.06,4.25,4.25,0,0,0-.55,1.38A10.63,10.63,0,0,0,704,374.69Z" transform="translate(-607 -340)"/><path d="M770,384.82a1.38,1.38,0,0,0-.2,0,9,9,0,0,1-3.05-.78,8.36,8.36,0,0,1-4.54-4.84,10.53,10.53,0,0,1-.53-1.82,13.64,13.64,0,0,1-.19-1.43,17.21,17.21,0,0,1,0-1.9,11.82,11.82,0,0,1,.55-3.23,10.64,10.64,0,0,1,.64-1.52,7.81,7.81,0,0,1,3-3.13,9.22,9.22,0,0,1,3.17-1.19,11.75,11.75,0,0,1,2.84-.14,9.38,9.38,0,0,1,3.94,1.1,8.58,8.58,0,0,1,2.59,2,7.11,7.11,0,0,1,1.26,2.14,6.1,6.1,0,0,1,.34,1.27c0,.1,0,.2,0,.29a.44.44,0,0,1-.41.53l-.5.08-2.57.39-2.06.31h-.09a.43.43,0,0,1-.48-.32,2.33,2.33,0,0,1-.07-.25l-.09-.38a2,2,0,0,0-.4-.8,2.83,2.83,0,0,0-2-1.09,3.62,3.62,0,0,0-1.27.08,2.37,2.37,0,0,0-1.53,1.2,4.23,4.23,0,0,0-.42,1.16,7.4,7.4,0,0,0-.19,1.56,11.61,11.61,0,0,0,0,1.18,8.26,8.26,0,0,0,.31,2.09,3.13,3.13,0,0,0,.54,1.08,2.47,2.47,0,0,0,1.4.92,3.33,3.33,0,0,0,1.6,0,2.57,2.57,0,0,0,1.64-1.31,2.62,2.62,0,0,0,.3-.85.85.85,0,0,1,0-.17.39.39,0,0,1,.46-.28l.76.12,1.86.29,1.86.3.64.1.22,0a.38.38,0,0,1,.31.4,5,5,0,0,1-.05.53,5.42,5.42,0,0,1-.32,1.09,7.49,7.49,0,0,1-3.24,3.8,9.43,9.43,0,0,1-3.32,1.22c-.31.05-.63.08-.95.12l-.13,0Z" transform="translate(-607 -340)"/><path d="M755.78,356.78l.23,0a3.21,3.21,0,0,1,1.66.62,3.05,3.05,0,0,1,1.19,2.1,3.89,3.89,0,0,1-.08,1.44,3.13,3.13,0,0,1-2.65,2.33,3.45,3.45,0,0,1-1.63-.14,3,3,0,0,1-2-2.32,3.53,3.53,0,0,1,.08-1.88,3,3,0,0,1,2.23-2.07,4.68,4.68,0,0,1,.54-.09l.17,0Z" transform="translate(-607 -340)"/><path d="M731.79,356.78l.25,0a3.16,3.16,0,0,1,1.73.68,2.93,2.93,0,0,1,1.05,1.71,3.91,3.91,0,0,1,0,1.83,3.13,3.13,0,0,1-2.64,2.27,3.38,3.38,0,0,1-1.55-.12,3,3,0,0,1-2.1-2.24,3.7,3.7,0,0,1,0-1.87,3,3,0,0,1,2.26-2.18l.54-.09.19,0Z" transform="translate(-607 -340)"/><path d="M785.68,356.78l.25,0a3.13,3.13,0,0,1,1.73.68,2.93,2.93,0,0,1,1.05,1.71,3.91,3.91,0,0,1,0,1.83,3.11,3.11,0,0,1-2.64,2.27,3.39,3.39,0,0,1-1.55-.12,3,3,0,0,1-2.1-2.24,3.7,3.7,0,0,1,0-1.87,3,3,0,0,1,2.26-2.18l.54-.09.2,0Z" transform="translate(-607 -340)"/><path d="M739.9,375.35v-4.92a1.21,1.21,0,0,0,0-.19.14.14,0,0,0-.13-.15h-2.22a.44.44,0,0,1-.41-.41v-4.19a.45.45,0,0,1,.4-.4h2.16c.15,0,.2-.05.21-.2v-4.54a.44.44,0,0,1,.45-.45h5.09a.44.44,0,0,1,.4.35.93.93,0,0,1,0,.23v4.45a.16.16,0,0,0,.17.16h3.44a.44.44,0,0,1,.43.41.61.61,0,0,1,0,.14v3.91a1.23,1.23,0,0,1,0,.19.41.41,0,0,1-.38.34h-3.46c-.13,0-.18.06-.19.19v6.8a3.55,3.55,0,0,0,.09.92,2.1,2.1,0,0,0,.15.42,1.39,1.39,0,0,0,1.11.83,3.44,3.44,0,0,0,.46,0H749a.45.45,0,0,1,.44.44.48.48,0,0,0,0,.12V384a1.09,1.09,0,0,1,0,.18.38.38,0,0,1-.25.35.94.94,0,0,1-.28.06c-1.16.05-2.32.11-3.48.05a10.59,10.59,0,0,1-2.5-.39,5.7,5.7,0,0,1-1.14-.47,3.11,3.11,0,0,1-1.32-1.39A4.81,4.81,0,0,1,740,381a9.09,9.09,0,0,1-.11-1.47Z" transform="translate(-607 -340)"/><path d="M725.32,371.37v12.49a2.26,2.26,0,0,1,0,.26.43.43,0,0,1-.4.41.85.85,0,0,1-.16,0h-5.23a.44.44,0,0,1-.42-.42V358.87a1.92,1.92,0,0,1,0-.24.45.45,0,0,1,.46-.44h5.31a.44.44,0,0,1,.44.42,1.93,1.93,0,0,1,0,.24Z" transform="translate(-607 -340)"/><path d="M758.7,374.79v9.32a.44.44,0,0,1-.36.41h-5.47a.44.44,0,0,1-.38-.43.66.66,0,0,1,0-.14v-18.3a1.09,1.09,0,0,1,0-.18.45.45,0,0,1,.4-.4h5.4a.45.45,0,0,1,.41.41v9.3Z" transform="translate(-607 -340)"/><path d="M728.51,374.79v-9.28a.44.44,0,0,1,.45-.43h5.33a.44.44,0,0,1,.43.4,1.62,1.62,0,0,1,0,.22v18.38a.45.45,0,0,1-.45.45.65.65,0,0,1-.14,0h-5.27a.42.42,0,0,1-.35-.39,1.93,1.93,0,0,1,0-.24Z" transform="translate(-607 -340)"/><path d="M782.4,374.79v-9.06a1.93,1.93,0,0,1,0-.24.44.44,0,0,1,.4-.41h5.39a.45.45,0,0,1,.41.36.49.49,0,0,1,0,.12v18.52a.45.45,0,0,1-.43.45h-5.43a.43.43,0,0,1-.35-.39,1.93,1.93,0,0,1,0-.24Z" transform="translate(-607 -340)"/><path d="M607,371.23v-1.58a2.6,2.6,0,0,0,0-.39,28.23,28.23,0,0,1,.56-4.77,29.67,29.67,0,0,1,7.46-14.63,30.07,30.07,0,0,1,20.09-9.75l1.36-.11h2c.15,0,.29.05.44.06a29,29,0,0,1,5.87.84,30.47,30.47,0,0,1,23.09,27l.12,1.36v2.32c0,.12,0,.23,0,.35-.05.56-.08,1.12-.13,1.68a29.84,29.84,0,0,1-2.55,9.39,30.47,30.47,0,0,1-32.8,17.43A29.56,29.56,0,0,1,617,393a29.87,29.87,0,0,1-9.89-20.17C607.07,372.26,607,371.75,607,371.23Z" transform="translate(-607 -340)" fill="#e3042e"/><path d="M632.11,400.38c-.16,0-5.47-5.24-8-7.75a.73.73,0,0,1-.19-.47c0-.92,0-1.83,0-2.75a3.28,3.28,0,0,1,.06-.63,2.43,2.43,0,0,1,2.44-1.91h1c0-.69,0-1.34,0-2a1.72,1.72,0,0,1,1.1-1.81,6.34,6.34,0,0,0,2.33-1.88,8.88,8.88,0,0,0,1.74-5.17c.08-1.6,0-3.21.06-4.82a.65.65,0,0,0-.19-.41c-1.21-1.13-2.41-2.27-3.65-3.38a1.28,1.28,0,0,1-.54-1.24,4.14,4.14,0,0,0,0-.61v-1.9h.92c0-.41,0-.79,0-1.16a2,2,0,0,1,1.49-1.86c.24-.05.27-.16.27-.37,0-.92,0-1.85,0-2.77a5.64,5.64,0,0,1,.16-1.3,5.38,5.38,0,0,1,5-4.07c.09,0,.22,0,.28-.07s0-.79-.13-.9l-1.73-1.36c-.08-.06-.18-.16-.18-.25,0-.69,0-1.38,0-2.11h2.09v-2.07c.64,0,1.26,0,1.88,0a.76.76,0,0,1,.58.25l28.63,28.61s.08.07.1.11a.67.67,0,0,1,.1.29c-.2,1.07-.36,2.15-.63,3.2a30.49,30.49,0,0,1-27,22.94,32.68,32.68,0,0,1-3.46.09A26.2,26.2,0,0,1,632.11,400.38Z" transform="translate(-607 -340)" fill="#0a1e71"/><path d="M623.9,392.46c0-1.15,0-2.3,0-3.44a2.4,2.4,0,0,1,2.4-2.15h1.08c0-.12,0-.23,0-.34,0-.64,0-1.28,0-1.92a1.45,1.45,0,0,1,.86-1.42,7.18,7.18,0,0,0,4.1-5.59,18.46,18.46,0,0,0,.25-2.88c0-2.51,0-5,0-7.53,0-.09,0-.18,0-.29h-4.35v-3.22h.89v-.87a2,2,0,0,1,1.61-2.21.33.33,0,0,0,.15-.26c0-.92,0-1.83,0-2.75a5.43,5.43,0,0,1,4.3-5.35c.32-.07.65-.07,1-.12.07,0,.2-.1.2-.15,0-.76,0-1.52,0-2.31h-2v-2.21h2v-2.06h2.2v2.05h2.07v2.19l-.31,0c-.48,0-1,0-1.44,0-.26,0-.32.09-.32.33,0,.58,0,1.16,0,1.74,0,.31.07.41.39.43a5.27,5.27,0,0,1,4.06,2.22,5.2,5.2,0,0,1,1,3.13c0,.95,0,1.89,0,2.84,0,.18,0,.26.24.3a2,2,0,0,1,1.53,1.89c0,.37,0,.74,0,1.15h.89v3.21h-4.36v.32c0,2.56,0,5.13,0,7.69a12,12,0,0,0,.79,4.56,6.73,6.73,0,0,0,3.37,3.63,1.69,1.69,0,0,1,1.07,1.76c0,.65,0,1.32,0,2h.82a4.62,4.62,0,0,1,1,.12,2.36,2.36,0,0,1,1.69,2,1.66,1.66,0,0,0,.06.21v3.29Z" transform="translate(-607 -340)" fill="#fff"/></svg>